<svg width="266" height="45" viewBox="0 0 266 45" fill="none" xmlns="http://www.w3.org/2000/svg">
<g filter="url(#filter0_di_21_30)">
<path d="M42.7776 18.3729C45.3921 16.8713 47.9995 15.3574 50.623 13.8715C53.113 12.4605 56.0425 13.7616 56.6072 16.5071C56.9339 18.0953 56.2248 19.8111 54.7909 20.6467C50.0899 23.3862 45.3822 26.1148 40.6509 28.8017C39.1865 29.6333 37.6781 29.4803 36.3436 28.4612C34.9879 27.4266 34.5606 25.9995 34.8786 24.3385C35.2416 23.0741 36.0724 22.2287 37.2054 21.5963C39.0786 20.5508 40.9217 19.4502 42.7776 18.3729" fill="#FABC05"/>
<path d="M44.697 17.2809C42.0891 15.7676 39.4746 14.2662 36.8758 12.7376C34.4089 11.2864 34.0711 8.09868 36.1663 6.23677C37.3784 5.16003 39.2187 4.91604 40.6594 5.74004C45.3826 8.44148 50.0995 11.1544 54.7919 13.9082C56.2442 14.7606 56.8658 16.1436 56.6509 17.8089C56.4325 19.5 55.4105 20.5835 53.813 21.1389C52.5363 21.4568 51.3889 21.1598 50.2747 20.4948C48.4326 19.3952 46.5579 18.3493 44.697 17.2809" fill="#109D58"/>
<path d="M20.9278 16.2103C19.2544 17.1611 17.58 18.1101 15.9081 19.0637C14.9304 19.6216 13.9631 20.1985 12.9803 20.7471C10.9998 21.8525 8.6468 21.2046 7.52387 19.2575C6.45218 17.3994 7.0681 14.9905 8.97543 13.8771C13.639 11.1551 18.3145 8.45283 23.007 5.7807C24.4461 4.96135 25.9392 5.06443 27.27 6.04411C28.6746 7.07814 29.1345 8.53319 28.819 10.2388C28.6234 10.6517 28.5065 11.1356 28.2134 11.4608C27.7371 11.9897 27.1955 12.4962 26.5926 12.8681C24.7268 14.0186 22.8191 15.1013 20.9278 16.2103" fill="#E94436"/>
<path d="M19.009 17.2768C20.6693 18.2504 22.3283 19.2262 23.9901 20.1972C24.962 20.7651 25.9452 21.3143 26.9117 21.891C28.8594 23.0537 29.4749 25.4153 28.3501 27.3612C27.2766 29.2185 24.8827 29.8897 22.9646 28.7943C18.2755 26.1166 13.5976 23.4188 8.93739 20.691C7.50814 19.8544 6.85088 18.5098 7.03393 16.8674C7.22707 15.1338 8.25722 14.0081 9.89222 13.4283C10.3474 13.3916 10.8249 13.2507 11.2531 13.3419C11.9494 13.4902 12.6589 13.7059 13.2824 14.0421C15.2116 15.0825 17.1031 16.1932 19.009 17.2768" fill="#4385F3"/>
<path d="M72.9903 21.492H66.1101L64.8426 25H62.6699L68.3733 9.31572H70.7497L76.4305 25H74.2577L72.9903 21.492ZM72.4019 19.8172L69.5502 11.8506L66.6985 19.8172H72.4019ZM80.9757 14.9059C81.3982 14.1666 82.0168 13.5631 82.8315 13.0953C83.6463 12.6276 84.5742 12.3937 85.6153 12.3937C86.7319 12.3937 87.7352 12.6578 88.6255 13.1859C89.5157 13.714 90.2173 14.4608 90.7303 15.4265C91.2433 16.377 91.4998 17.486 91.4998 18.7534C91.4998 20.0058 91.2433 21.1223 90.7303 22.103C90.2173 23.0838 89.5081 23.8457 88.6028 24.3889C87.7126 24.9321 86.7168 25.2037 85.6153 25.2037C84.5441 25.2037 83.6011 24.9698 82.7863 24.5021C81.9866 24.0343 81.3831 23.4384 80.9757 22.7141V25H78.9161V8.252H80.9757V14.9059ZM89.395 18.7534C89.395 17.818 89.2064 17.0032 88.8291 16.3091C88.4519 15.6151 87.9389 15.087 87.2901 14.7249C86.6564 14.3628 85.9548 14.1817 85.1853 14.1817C84.4309 14.1817 83.7293 14.3703 83.0805 14.7475C82.4468 15.1096 81.9338 15.6453 81.5415 16.3544C81.1643 17.0485 80.9757 17.8557 80.9757 18.7761C80.9757 19.7116 81.1643 20.5339 81.5415 21.243C81.9338 21.9371 82.4468 22.4727 83.0805 22.8499C83.7293 23.212 84.4309 23.3931 85.1853 23.3931C85.9548 23.3931 86.6564 23.212 87.2901 22.8499C87.9389 22.4727 88.4519 21.9371 88.8291 21.243C89.2064 20.5339 89.395 19.704 89.395 18.7534ZM96.2703 14.9059C96.6927 14.1666 97.3114 13.5631 98.1261 13.0953C98.9409 12.6276 99.8688 12.3937 100.91 12.3937C102.026 12.3937 103.03 12.6578 103.92 13.1859C104.81 13.714 105.512 14.4608 106.025 15.4265C106.538 16.377 106.794 17.486 106.794 18.7534C106.794 20.0058 106.538 21.1223 106.025 22.103C105.512 23.0838 104.803 23.8457 103.897 24.3889C103.007 24.9321 102.011 25.2037 100.91 25.2037C99.8386 25.2037 98.8956 24.9698 98.0809 24.5021C97.2812 24.0343 96.6777 23.4384 96.2703 22.7141V25H94.2107V8.252H96.2703V14.9059ZM104.69 18.7534C104.69 17.818 104.501 17.0032 104.124 16.3091C103.747 15.6151 103.234 15.087 102.585 14.7249C101.951 14.3628 101.249 14.1817 100.48 14.1817C99.7255 14.1817 99.0239 14.3703 98.3751 14.7475C97.7414 15.1096 97.2284 15.6453 96.8361 16.3544C96.4589 17.0485 96.2703 17.8557 96.2703 18.7761C96.2703 19.7116 96.4589 20.5339 96.8361 21.243C97.2284 21.9371 97.7414 22.4727 98.3751 22.8499C99.0239 23.212 99.7255 23.3931 100.48 23.3931C101.249 23.3931 101.951 23.212 102.585 22.8499C103.234 22.4727 103.747 21.9371 104.124 21.243C104.501 20.5339 104.69 19.704 104.69 18.7534ZM108.736 18.7534C108.736 17.486 108.992 16.377 109.505 15.4265C110.018 14.4608 110.72 13.714 111.61 13.1859C112.515 12.6578 113.519 12.3937 114.62 12.3937C115.707 12.3937 116.65 12.6276 117.449 13.0953C118.249 13.5631 118.845 14.1515 119.237 14.8607V12.5974H121.319V25H119.237V22.6915C118.83 23.4157 118.219 24.0193 117.404 24.5021C116.604 24.9698 115.669 25.2037 114.598 25.2037C113.496 25.2037 112.5 24.9321 111.61 24.3889C110.72 23.8457 110.018 23.0838 109.505 22.103C108.992 21.1223 108.736 20.0058 108.736 18.7534ZM119.237 18.7761C119.237 17.8406 119.049 17.0258 118.671 16.3318C118.294 15.6377 117.781 15.1096 117.132 14.7475C116.499 14.3703 115.797 14.1817 115.028 14.1817C114.258 14.1817 113.557 14.3628 112.923 14.7249C112.289 15.087 111.784 15.6151 111.406 16.3091C111.029 17.0032 110.841 17.818 110.841 18.7534C110.841 19.704 111.029 20.5339 111.406 21.243C111.784 21.9371 112.289 22.4727 112.923 22.8499C113.557 23.212 114.258 23.3931 115.028 23.3931C115.797 23.3931 116.499 23.212 117.132 22.8499C117.781 22.4727 118.294 21.9371 118.671 21.243C119.049 20.5339 119.237 19.7116 119.237 18.7761ZM129.191 25.2037C128.24 25.2037 127.388 25.0453 126.633 24.7284C125.879 24.3965 125.283 23.9438 124.845 23.3705C124.408 22.782 124.166 22.1106 124.121 21.3562H126.248C126.309 21.9748 126.595 22.4803 127.108 22.8726C127.636 23.2648 128.323 23.461 129.168 23.461C129.953 23.461 130.571 23.2875 131.024 22.9404C131.476 22.5934 131.703 22.1559 131.703 21.6278C131.703 21.0846 131.461 20.6847 130.979 20.4282C130.496 20.1567 129.749 19.8926 128.738 19.6361C127.818 19.3947 127.063 19.1533 126.475 18.9119C125.901 18.6554 125.403 18.2857 124.981 17.8029C124.574 17.305 124.37 16.6562 124.37 15.8565C124.37 15.2228 124.558 14.6419 124.936 14.1138C125.313 13.5857 125.849 13.1708 126.543 12.869C127.237 12.5522 128.029 12.3937 128.919 12.3937C130.292 12.3937 131.401 12.7408 132.246 13.4348C133.091 14.1289 133.544 15.0794 133.604 16.2865H131.544C131.499 15.6377 131.235 15.1172 130.752 14.7249C130.284 14.3326 129.651 14.1364 128.851 14.1364C128.112 14.1364 127.523 14.2949 127.086 14.6117C126.648 14.9286 126.429 15.3435 126.429 15.8565C126.429 16.2639 126.558 16.6034 126.814 16.875C127.086 17.1315 127.418 17.3427 127.81 17.5087C128.217 17.6595 128.776 17.8331 129.485 18.0292C130.375 18.2706 131.099 18.512 131.657 18.7534C132.216 18.9798 132.691 19.3268 133.083 19.7945C133.491 20.2623 133.702 20.8734 133.717 21.6278C133.717 22.3067 133.528 22.9178 133.151 23.461C132.774 24.0042 132.238 24.4342 131.544 24.751C130.865 25.0528 130.081 25.2037 129.191 25.2037ZM147.57 9.22519C149.29 9.22519 150.776 9.54959 152.028 10.1984C153.296 10.8321 154.261 11.7449 154.925 12.9369C155.604 14.1289 155.944 15.5321 155.944 17.1465C155.944 18.761 155.604 20.1642 154.925 21.3562C154.261 22.5331 153.296 23.4384 152.028 24.0721C150.776 24.6907 149.29 25 147.57 25H142.658V9.22519H147.57ZM147.57 23.3026C149.606 23.3026 151.161 22.7669 152.232 21.6957C153.303 20.6093 153.839 19.0929 153.839 17.1465C153.839 15.1851 153.296 13.6536 152.209 12.5522C151.138 11.4507 149.591 10.9 147.57 10.9H144.718V23.3026H147.57ZM169.976 18.3234C169.976 18.7157 169.954 19.1307 169.908 19.5682H159.995C160.071 20.7904 160.486 21.7485 161.24 22.4425C162.01 23.1215 162.938 23.461 164.024 23.461C164.914 23.461 165.654 23.2573 166.242 22.8499C166.846 22.4274 167.268 21.8692 167.509 21.1751H169.727C169.395 22.3671 168.732 23.3403 167.736 24.0947C166.74 24.834 165.503 25.2037 164.024 25.2037C162.847 25.2037 161.791 24.9396 160.855 24.4116C159.935 23.8835 159.211 23.1366 158.683 22.1709C158.155 21.1902 157.891 20.0586 157.891 18.7761C157.891 17.4936 158.147 16.3695 158.66 15.4038C159.173 14.4382 159.89 13.6989 160.81 13.1859C161.746 12.6578 162.817 12.3937 164.024 12.3937C165.201 12.3937 166.242 12.6502 167.147 13.1632C168.053 13.6762 168.747 14.3854 169.229 15.2907C169.727 16.1809 169.976 17.1918 169.976 18.3234ZM167.849 17.8934C167.849 17.1088 167.675 16.4374 167.328 15.8791C166.981 15.3058 166.506 14.8758 165.902 14.5891C165.314 14.2873 164.658 14.1364 163.933 14.1364C162.892 14.1364 162.002 14.4684 161.263 15.1323C160.539 15.7961 160.124 16.7165 160.018 17.8934H167.849ZM177.312 23.0989L181.159 12.5974H183.355L178.489 25H176.09L171.224 12.5974H173.442L177.312 23.0989ZM196.698 18.3234C196.698 18.7157 196.675 19.1307 196.63 19.5682H186.717C186.792 20.7904 187.207 21.7485 187.962 22.4425C188.731 23.1215 189.659 23.461 190.745 23.461C191.636 23.461 192.375 23.2573 192.963 22.8499C193.567 22.4274 193.989 21.8692 194.231 21.1751H196.449C196.117 22.3671 195.453 23.3403 194.457 24.0947C193.461 24.834 192.224 25.2037 190.745 25.2037C189.568 25.2037 188.512 24.9396 187.577 24.4116C186.656 23.8835 185.932 23.1366 185.404 22.1709C184.876 21.1902 184.612 20.0586 184.612 18.7761C184.612 17.4936 184.868 16.3695 185.381 15.4038C185.894 14.4382 186.611 13.6989 187.532 13.1859C188.467 12.6578 189.538 12.3937 190.745 12.3937C191.922 12.3937 192.963 12.6502 193.869 13.1632C194.774 13.6762 195.468 14.3854 195.951 15.2907C196.449 16.1809 196.698 17.1918 196.698 18.3234ZM194.57 17.8934C194.57 17.1088 194.397 16.4374 194.05 15.8791C193.703 15.3058 193.227 14.8758 192.624 14.5891C192.035 14.2873 191.379 14.1364 190.655 14.1364C189.614 14.1364 188.723 14.4684 187.984 15.1323C187.26 15.7961 186.845 16.7165 186.739 17.8934H194.57ZM201.476 8.252V25H199.416V8.252H201.476ZM210.395 25.2037C209.233 25.2037 208.177 24.9396 207.227 24.4116C206.291 23.8835 205.552 23.1366 205.009 22.1709C204.48 21.1902 204.216 20.0586 204.216 18.7761C204.216 17.5087 204.488 16.3921 205.031 15.4265C205.589 14.4457 206.344 13.6989 207.294 13.1859C208.245 12.6578 209.309 12.3937 210.486 12.3937C211.662 12.3937 212.726 12.6578 213.677 13.1859C214.627 13.6989 215.374 14.4382 215.917 15.4038C216.476 16.3695 216.755 17.4936 216.755 18.7761C216.755 20.0586 216.468 21.1902 215.895 22.1709C215.336 23.1366 214.575 23.8835 213.609 24.4116C212.643 24.9396 211.572 25.2037 210.395 25.2037ZM210.395 23.3931C211.134 23.3931 211.828 23.2196 212.477 22.8726C213.126 22.5255 213.647 22.005 214.039 21.3109C214.446 20.6169 214.65 19.7719 214.65 18.7761C214.65 17.7803 214.454 16.9353 214.062 16.2412C213.669 15.5472 213.156 15.0342 212.522 14.7022C211.889 14.3552 211.202 14.1817 210.463 14.1817C209.709 14.1817 209.014 14.3552 208.381 14.7022C207.762 15.0342 207.264 15.5472 206.887 16.2412C206.51 16.9353 206.321 17.7803 206.321 18.7761C206.321 19.787 206.502 20.6395 206.864 21.3335C207.242 22.0276 207.74 22.5482 208.358 22.8952C208.977 23.2271 209.656 23.3931 210.395 23.3931ZM221.522 14.8833C221.93 14.1741 222.533 13.5857 223.333 13.118C224.148 12.6351 225.091 12.3937 226.162 12.3937C227.263 12.3937 228.259 12.6578 229.149 13.1859C230.055 13.714 230.764 14.4608 231.277 15.4265C231.79 16.377 232.046 17.486 232.046 18.7534C232.046 20.0058 231.79 21.1223 231.277 22.103C230.764 23.0838 230.055 23.8457 229.149 24.3889C228.259 24.9321 227.263 25.2037 226.162 25.2037C225.106 25.2037 224.17 24.9698 223.355 24.5021C222.556 24.0193 221.945 23.4233 221.522 22.7141V30.8844H219.463V12.5974H221.522V14.8833ZM229.942 18.7534C229.942 17.818 229.753 17.0032 229.376 16.3091C228.999 15.6151 228.485 15.087 227.837 14.7249C227.203 14.3628 226.501 14.1817 225.732 14.1817C224.977 14.1817 224.276 14.3703 223.627 14.7475C222.993 15.1096 222.48 15.6453 222.088 16.3544C221.711 17.0485 221.522 17.8557 221.522 18.7761C221.522 19.7116 221.711 20.5339 222.088 21.243C222.48 21.9371 222.993 22.4727 223.627 22.8499C224.276 23.212 224.977 23.3931 225.732 23.3931C226.501 23.3931 227.203 23.212 227.837 22.8499C228.485 22.4727 228.999 21.9371 229.376 21.243C229.753 20.5339 229.942 19.704 229.942 18.7534ZM246.073 18.3234C246.073 18.7157 246.051 19.1307 246.006 19.5682H236.093C236.168 20.7904 236.583 21.7485 237.337 22.4425C238.107 23.1215 239.035 23.461 240.121 23.461C241.011 23.461 241.751 23.2573 242.339 22.8499C242.943 22.4274 243.365 21.8692 243.607 21.1751H245.825C245.493 22.3671 244.829 23.3403 243.833 24.0947C242.837 24.834 241.6 25.2037 240.121 25.2037C238.944 25.2037 237.888 24.9396 236.953 24.4116C236.032 23.8835 235.308 23.1366 234.78 22.1709C234.252 21.1902 233.988 20.0586 233.988 18.7761C233.988 17.4936 234.244 16.3695 234.757 15.4038C235.27 14.4382 235.987 13.6989 236.907 13.1859C237.843 12.6578 238.914 12.3937 240.121 12.3937C241.298 12.3937 242.339 12.6502 243.244 13.1632C244.15 13.6762 244.844 14.3854 245.327 15.2907C245.825 16.1809 246.073 17.1918 246.073 18.3234ZM243.946 17.8934C243.946 17.1088 243.773 16.4374 243.425 15.8791C243.078 15.3058 242.603 14.8758 242 14.5891C241.411 14.2873 240.755 14.1364 240.031 14.1364C238.99 14.1364 238.099 14.4684 237.36 15.1323C236.636 15.7961 236.221 16.7165 236.115 17.8934H243.946ZM250.852 14.6117C251.214 13.9026 251.727 13.3518 252.391 12.9595C253.07 12.5672 253.892 12.3711 254.858 12.3711V14.4985H254.314C252.006 14.4985 250.852 15.7509 250.852 18.2555V25H248.792V12.5974H250.852V14.6117Z" fill="url(#paint0_linear_21_30)"/>
</g>
<defs>
<filter id="filter0_di_21_30" x="0" y="1.23077" width="265.858" height="43.6537" filterUnits="userSpaceOnUse" color-interpolation-filters="sRGB">
<feFlood flood-opacity="0" result="BackgroundImageFix"/>
<feColorMatrix in="SourceAlpha" type="matrix" values="0 0 0 0 0 0 0 0 0 0 0 0 0 0 0 0 0 0 127 0" result="hardAlpha"/>
<feOffset dx="2" dy="5"/>
<feGaussianBlur stdDeviation="4.5"/>
<feComposite in2="hardAlpha" operator="out"/>
<feColorMatrix type="matrix" values="0 0 0 0 0 0 0 0 0 0 0 0 0 0 0 0 0 0 0.31 0"/>
<feBlend mode="normal" in2="BackgroundImageFix" result="effect1_dropShadow_21_30"/>
<feBlend mode="normal" in="SourceGraphic" in2="effect1_dropShadow_21_30" result="shape"/>
<feColorMatrix in="SourceAlpha" type="matrix" values="0 0 0 0 0 0 0 0 0 0 0 0 0 0 0 0 0 0 127 0" result="hardAlpha"/>
<feOffset dx="1" dy="5"/>
<feGaussianBlur stdDeviation="3"/>
<feComposite in2="hardAlpha" operator="arithmetic" k2="-1" k3="1"/>
<feColorMatrix type="matrix" values="0 0 0 0 0 0 0 0 0 0 0 0 0 0 0 0 0 0 0.2 0"/>
<feBlend mode="normal" in2="shape" result="effect2_innerShadow_21_30"/>
</filter>
<linearGradient id="paint0_linear_21_30" x1="68.8827" y1="34" x2="241.134" y2="34" gradientUnits="userSpaceOnUse">
<stop stop-color="#E94436"/>
<stop offset="0.350185" stop-color="#109D58"/>
<stop offset="0.662153" stop-color="#FABC05"/>
<stop offset="0.9375" stop-color="#4385F3"/>
</linearGradient>
</defs>
</svg>
