<svg width="29" height="14" viewBox="0 0 29 14" fill="none" xmlns="http://www.w3.org/2000/svg">
<path d="M20.7783 7.63205C22.2966 6.76 23.8109 5.88081 25.3345 5.01789C26.7805 4.19845 28.4819 4.95406 28.8098 6.54849C28.9995 7.47083 28.5877 8.46727 27.755 8.95254C25.0249 10.5435 22.2909 12.1281 19.5432 13.6885C18.6927 14.1715 17.8167 14.0826 17.0417 13.4908C16.2544 12.8899 16.0062 12.0612 16.1909 11.0965C16.4017 10.3622 16.8842 9.87128 17.5422 9.50402C18.6301 8.89685 19.7004 8.25768 20.7783 7.63205Z" fill="#FABC05"/>
<path d="M21.8954 6.99808C20.3809 6.11924 18.8625 5.24731 17.3532 4.35959C15.9206 3.51681 15.7244 1.66556 16.9412 0.584268C17.6451 -0.0410425 18.7139 -0.182739 19.5506 0.295795C22.2936 1.86464 25.0329 3.44015 27.758 5.03941C28.6014 5.53443 28.9624 6.3376 28.8376 7.30472C28.7108 8.28681 28.1173 8.91605 27.1895 9.2386C26.4481 9.42322 25.7817 9.25073 25.1347 8.86454C24.0649 8.22595 22.9761 7.61855 21.8954 6.99808Z" fill="#109D58"/>
<path d="M8.08857 6.3763C7.11675 6.92847 6.14434 7.4796 5.17338 8.03339C4.60558 8.35739 4.04382 8.69242 3.47306 9.01102C2.32288 9.65297 0.956379 9.27671 0.304238 8.14594C-0.318147 7.06686 0.0395487 5.66791 1.14723 5.0213C3.8556 3.44052 6.5709 1.87119 9.29607 0.319366C10.1318 -0.156467 10.9989 -0.0966043 11.7718 0.472339C12.5875 1.07285 12.8546 1.91786 12.6714 2.90838C12.5578 3.14817 12.4899 3.42919 12.3197 3.61805C12.0431 3.92521 11.7285 4.21936 11.3784 4.43533C10.2948 5.10348 9.18695 5.73225 8.08857 6.3763Z" fill="#E94436"/>
<path d="M6.97585 6.99559C7.94007 7.561 8.90354 8.12769 9.86863 8.69159C10.4331 9.0214 11.004 9.34034 11.5653 9.67526C12.6965 10.3505 13.0539 11.722 12.4007 12.852C11.7773 13.9307 10.387 14.3205 9.27307 13.6843C6.54987 12.1292 3.83318 10.5625 1.12676 8.97836C0.296724 8.49251 -0.0849804 7.71164 0.0213259 6.75783C0.133492 5.75105 0.731752 5.09731 1.68128 4.76059C1.94562 4.73928 2.22293 4.65745 2.47161 4.71042C2.87599 4.79654 3.28803 4.92181 3.65013 5.11705C4.77051 5.72126 5.869 6.36629 6.97585 6.99559Z" fill="#4385F3"/>
</svg>
